<?xml version="1.0" standalone="no"?>
<!DOCTYPE svg PUBLIC "-//W3C//DTD SVG 20010904//EN"
 "http://www.w3.org/TR/2001/REC-SVG-20010904/DTD/svg10.dtd">
<svg version="1.0" xmlns="http://www.w3.org/2000/svg"
 width="192.000000pt" height="192.000000pt" viewBox="0 0 192.000000 192.000000"
 preserveAspectRatio="xMidYMid meet">
<g transform="translate(0.000000,192.000000) scale(0.100000,-0.100000)"
fill="#000000" stroke="none">
<path d="M619 1903 c-13 -16 -12 -17 4 -4 9 7 17 15 17 17 0 8 -8 3 -21 -13z"/>
<path d="M839 1910 c-205 -20 -420 -128 -575 -292 -149 -157 -243 -365 -256
-565 -2 -34 -1 -60 3 -57 10 6 37 125 41 184 0 8 6 21 12 29 9 12 8 13 -4 6
-11 -6 -10 -3 2 12 10 11 18 25 18 32 0 6 7 26 16 43 9 17 11 27 4 23 -7 -4
-1 10 13 31 42 67 54 89 57 99 2 9 38 57 85 114 11 13 30 33 42 44 12 11 19
25 16 31 -3 6 -3 8 2 4 4 -4 28 11 53 33 25 22 56 42 69 45 12 4 20 10 17 15
-3 5 0 9 7 9 7 0 34 14 60 31 27 17 54 32 61 33 7 1 23 8 36 14 12 7 22 10 22
7 0 -3 16 1 35 9 20 9 38 15 40 15 3 -1 24 3 48 7 23 4 45 7 50 6 4 -1 7 1 7
6 0 4 18 7 41 8 23 1 48 8 57 18 9 9 12 15 7 15 -6 -1 -44 -5 -86 -9z"/>
<path d="M1002 1904 c9 -10 34 -17 57 -18 23 -1 41 -4 41 -8 0 -5 3 -7 8 -6 4
1 27 -2 52 -7 25 -5 49 -8 54 -7 4 2 13 -2 20 -7 6 -5 24 -12 39 -15 15 -2 32
-8 39 -13 7 -4 19 -8 27 -9 7 -2 38 -20 70 -41 31 -21 68 -43 82 -49 15 -7 45
-28 66 -48 22 -20 44 -32 48 -28 5 4 5 2 2 -4 -3 -6 4 -20 16 -31 24 -21 42
-42 97 -113 19 -24 35 -47 34 -50 -1 -3 5 -15 13 -27 8 -12 11 -28 7 -34 -4
-7 -3 -9 3 -6 9 6 30 -24 21 -30 -2 -1 6 -9 17 -18 11 -9 14 -14 8 -10 -16 7
-6 -22 14 -46 7 -9 10 -18 7 -21 -3 -4 3 -19 13 -34 10 -16 12 -25 6 -21 -17
11 -16 2 2 -33 8 -16 14 -33 13 -37 -4 -18 15 -113 26 -128 10 -14 12 -6 8 46
-20 317 -230 621 -529 769 -97 47 -200 79 -278 86 -33 3 -73 7 -90 10 -28 4
-29 3 -13 -12z"/>
<path d="M173 1585 c0 -8 4 -12 9 -9 5 3 6 10 3 15 -9 13 -12 11 -12 -6z"/>
<path d="M1735 1591 c-3 -5 -2 -12 3 -15 5 -3 9 1 9 9 0 17 -3 19 -12 6z"/>
<path d="M459 1510 c-14 -14 -17 -42 -17 -148 0 -170 -9 -163 203 -161 96 1
152 5 149 11 -4 6 1 6 13 0 11 -6 138 -11 324 -12 289 -1 306 0 323 19 24 26
29 266 6 294 -13 15 -42 17 -332 17 -241 0 -318 -3 -318 -12 0 -9 -3 -9 -12 0
-8 8 -59 12 -168 11 -136 -1 -157 -3 -171 -19z m331 -145 l0 -135 -160 0 -161
0 2 135 1 135 159 0 159 0 0 -135z m660 0 l0 -135 -317 0 -318 0 0 135 0 135
318 0 317 0 0 -135z"/>
<path d="M844 1121 c-2 -2 -86 -3 -187 -2 -166 2 -184 1 -199 -16 -12 -14 -16
-44 -16 -140 -1 -108 1 -124 19 -147 20 -26 21 -26 170 -26 82 0 149 4 149 8
0 11 39 12 45 1 4 -5 71 -9 149 -9 131 0 146 2 167 21 13 11 17 17 9 13 -12
-6 -13 -5 -4 7 14 17 16 259 3 259 -5 0 -8 6 -6 13 1 9 -35 13 -146 17 -82 3
-151 3 -153 1z m-54 -161 l0 -130 -160 0 -160 0 0 130 0 130 160 0 160 0 0
-130z m340 0 l0 -130 -157 0 -158 0 0 130 0 130 158 0 157 0 0 -130z"/>
<path d="M8 867 c13 -200 107 -408 256 -565 116 -122 260 -212 421 -262 77
-24 254 -40 222 -20 -10 6 -33 12 -51 13 -19 1 -32 5 -30 9 3 4 -4 6 -13 6
-35 -1 -116 12 -127 21 -7 6 -24 12 -40 15 -15 3 -33 9 -39 15 -12 9 -18 11
-38 11 -5 0 -7 5 -3 12 4 7 3 8 -4 4 -6 -4 -30 6 -53 21 -23 15 -61 38 -83 51
-23 13 -55 36 -72 53 -17 16 -34 26 -39 22 -4 -5 -6 -3 -2 3 3 5 -8 23 -24 38
-31 30 -119 140 -119 150 0 4 -18 36 -40 72 -21 35 -34 62 -29 58 6 -3 3 9 -7
27 -10 19 -18 39 -19 44 -1 6 -4 17 -7 25 -7 17 -16 59 -23 105 -8 54 -27 125
-34 129 -4 3 -5 -23 -3 -57z"/>
<path d="M1902 913 c-5 -10 -13 -37 -17 -61 -4 -23 -8 -52 -11 -65 -2 -12 -6
-35 -8 -51 -3 -17 -9 -39 -14 -50 -37 -82 -42 -97 -30 -91 7 4 6 1 -3 -7 -9
-7 -17 -17 -19 -23 -7 -27 -13 -34 -23 -28 -6 3 -7 1 -3 -6 4 -6 0 -24 -10
-39 -10 -15 -19 -33 -20 -41 -2 -8 -6 -17 -11 -20 -4 -3 -28 -31 -53 -61 -24
-30 -53 -61 -62 -68 -10 -7 -15 -19 -12 -25 4 -7 3 -9 -1 -4 -5 4 -22 -6 -39
-22 -17 -17 -49 -40 -72 -53 -22 -13 -60 -36 -83 -51 -23 -15 -47 -25 -53 -21
-7 4 -8 3 -4 -4 4 -7 2 -13 -3 -13 -20 -3 -26 -5 -48 -17 -13 -7 -23 -10 -23
-7 0 3 -15 -1 -34 -9 -18 -7 -53 -17 -77 -21 -24 -4 -52 -12 -63 -17 -12 -7
-16 -7 -12 0 7 11 -84 -14 -96 -26 -15 -15 168 7 237 28 315 98 558 346 650
664 15 52 36 215 29 224 -1 2 -7 -5 -12 -15z"/>
<path d="M464 703 c-20 -17 -22 -28 -23 -141 -1 -178 -8 -171 190 -172 199 0
189 -9 189 167 0 167 8 161 -191 162 -123 1 -147 -1 -165 -16z m326 -148 l0
-135 -160 0 -160 0 0 135 0 135 160 0 160 0 0 -135z"/>
<path d="M173 335 c0 -8 4 -12 9 -9 5 3 6 10 3 15 -9 13 -12 11 -12 -6z"/>
<path d="M1735 341 c-3 -5 -2 -12 3 -15 5 -3 9 1 9 9 0 17 -3 19 -12 6z"/>
</g>
</svg>
