<svg version="1.1" id="Layer_1" xmlns="http://www.w3.org/2000/svg" xmlns:xlink="http://www.w3.org/1999/xlink" x="0px" y="0px"
	 width="100%" viewBox="0 0 192 192" enable-background="new 0 0 192 192" xml:space="preserve">
<path fill="#000000" opacity="1.000000" stroke="none" 
	d="
M131.000000,193.000000 
	C87.361450,193.000000 44.222900,193.000000 1.042176,193.000000 
	C1.042176,129.069824 1.042176,65.139618 1.042176,1.104706 
	C64.888359,1.104706 128.776947,1.104706 192.832764,1.104706 
	C192.832764,64.999641 192.832764,128.999786 192.832764,193.000000 
	C172.473236,193.000000 151.986618,193.000000 131.000000,193.000000 
M105.500031,43.034756 
	C98.024727,43.034756 90.549416,43.034756 82.940872,43.034756 
	C82.940872,52.066360 82.940872,60.800079 82.940872,69.343903 
	C103.988853,69.343903 124.700119,69.343903 145.305969,69.343903 
	C145.305969,60.362896 145.305969,51.794884 145.305969,43.034756 
	C132.129944,43.034756 119.314980,43.034756 105.500031,43.034756 
M49.066601,43.256409 
	C49.066601,51.956429 49.066601,60.656452 49.066601,69.492630 
	C59.256664,69.492630 69.462173,69.492630 79.679916,69.492630 
	C79.679916,60.537216 79.679916,51.851933 79.679916,43.047760 
	C69.542305,43.047760 59.754803,43.047760 49.066601,43.256409 
M72.407349,124.216698 
	C64.628357,124.216698 56.849361,124.216698 48.763390,124.216698 
	C48.763390,133.275772 48.763390,141.981018 48.763390,150.723007 
	C59.242950,150.723007 69.466972,150.723007 79.666153,150.723007 
	C79.666153,141.793213 79.666153,133.113297 79.666153,124.216705 
	C77.329445,124.216705 75.354851,124.216705 72.407349,124.216698 
M48.464989,106.210007 
	C49.043568,107.509377 49.595497,109.926697 50.204704,109.941216 
	C60.094700,110.176971 69.991951,110.108109 79.777328,110.108109 
	C79.777328,101.006180 79.777328,92.585007 79.777328,84.124207 
	C69.305664,84.124207 59.081711,84.124207 48.464962,84.124207 
	C48.464962,91.344193 48.464962,98.304649 48.464989,106.210007 
M82.788528,104.451645 
	C82.788528,106.223297 82.788528,107.994949 82.788528,109.778259 
	C93.469093,109.778259 103.653984,109.778259 113.767174,109.778259 
	C113.767174,101.024292 113.767174,92.609291 113.767174,84.203354 
	C103.328613,84.203354 93.131790,84.203354 82.788528,84.203354 
	C82.788528,90.845512 82.788528,97.154808 82.788528,104.451645 
z"/>
<path fill="#F9F9F9" opacity="1.000000" stroke="none" 
	d="
M106.000015,43.034756 
	C119.314980,43.034756 132.129944,43.034756 145.305969,43.034756 
	C145.305969,51.794884 145.305969,60.362896 145.305969,69.343903 
	C124.700119,69.343903 103.988853,69.343903 82.940872,69.343903 
	C82.940872,60.800079 82.940872,52.066360 82.940872,43.034756 
	C90.549416,43.034756 98.024727,43.034756 106.000015,43.034756 
z"/>
<path fill="#F7F7F7" opacity="1.000000" stroke="none" 
	d="
M49.516949,43.152084 
	C59.754803,43.047760 69.542305,43.047760 79.679916,43.047760 
	C79.679916,51.851933 79.679916,60.537216 79.679916,69.492630 
	C69.462173,69.492630 59.256664,69.492630 49.066601,69.492630 
	C49.066601,60.656452 49.066601,51.956429 49.516949,43.152084 
z"/>
<path fill="#F8F8F8" opacity="1.000000" stroke="none" 
	d="
M72.893806,124.216705 
	C75.354851,124.216705 77.329445,124.216705 79.666153,124.216705 
	C79.666153,133.113297 79.666153,141.793213 79.666153,150.723007 
	C69.466972,150.723007 59.242950,150.723007 48.763390,150.723007 
	C48.763390,141.981018 48.763390,133.275772 48.763390,124.216698 
	C56.849361,124.216698 64.628357,124.216698 72.893806,124.216705 
z"/>
<path fill="#FBFBFB" opacity="1.000000" stroke="none" 
	d="
M48.464973,105.737564 
	C48.464962,98.304649 48.464962,91.344193 48.464962,84.124207 
	C59.081711,84.124207 69.305664,84.124207 79.777328,84.124207 
	C79.777328,92.585007 79.777328,101.006180 79.777328,110.108109 
	C69.991951,110.108109 60.094700,110.176971 50.204704,109.941216 
	C49.595497,109.926697 49.043568,107.509377 48.464973,105.737564 
z"/>
<path fill="#FFFFFF" opacity="1.000000" stroke="none" 
	d="
M82.788528,103.957878 
	C82.788528,97.154808 82.788528,90.845512 82.788528,84.203354 
	C93.131790,84.203354 103.328613,84.203354 113.767174,84.203354 
	C113.767174,92.609291 113.767174,101.024292 113.767174,109.778259 
	C103.653984,109.778259 93.469093,109.778259 82.788528,109.778259 
	C82.788528,107.994949 82.788528,106.223297 82.788528,103.957878 
z"/>
</svg>