<svg version="1.1" id="Layer_1" xmlns="http://www.w3.org/2000/svg" xmlns:xlink="http://www.w3.org/1999/xlink" x="0px" y="0px"
	 width="100%" viewBox="0 0 1000 1000" enable-background="new 0 0 1000 1000" xml:space="preserve">
<path fill="#000000" opacity="1.000000" stroke="none" 
	d="
M538.000000,1001.000000 
	C358.666656,1001.000000 179.833328,1001.000000 1.000000,1001.000000 
	C1.000000,667.666687 1.000000,334.333344 1.000000,1.000000 
	C334.333344,1.000000 667.666687,1.000000 1001.000000,1.000000 
	C1001.000000,334.333344 1001.000000,667.666687 1001.000000,1001.000000 
	C846.833313,1001.000000 692.666687,1001.000000 538.000000,1001.000000 
M510.500000,100.000000 
	C471.420471,100.000000 432.340942,100.000000 393.305786,100.000000 
	C393.146881,101.150826 393.022095,101.633080 393.021973,102.115364 
	C393.008759,156.265793 392.979584,210.416275 393.108307,264.566406 
	C393.112671,266.404449 394.300781,268.635406 395.632294,270.009796 
	C403.745636,278.384369 412.146637,286.480408 420.252563,294.861938 
	C422.523193,297.209778 424.819580,298.066223 428.051819,298.064545 
	C571.175598,297.989868 714.299438,298.000000 857.423279,298.000000 
	C859.186768,298.000000 860.950317,298.000000 862.776855,298.000000 
	C862.885132,296.719604 862.987488,296.073700 862.987549,295.427826 
	C862.996765,241.777237 863.023193,188.126572 862.893127,134.476303 
	C862.888672,132.633423 861.727783,130.390488 860.398865,129.019318 
	C852.051697,120.407028 843.390503,112.097939 835.090576,103.441765 
	C832.552307,100.794579 829.981750,99.926414 826.405640,99.929382 
	C721.437134,100.016541 616.468567,100.000000 510.500000,100.000000 
M630.000000,535.500000 
	C630.000000,502.838470 630.057800,470.176636 629.876099,437.516144 
	C629.863342,435.221771 628.629639,432.413330 627.028931,430.735992 
	C618.748596,422.059296 610.079041,413.755127 601.740967,405.131744 
	C599.467590,402.780548 597.167297,401.930664 593.937866,401.934967 
	C528.781738,402.021851 463.625488,402.000000 398.469269,402.000000 
	C396.715973,402.000000 394.962708,402.000000 393.263580,402.000000 
	C393.124847,403.205261 393.019592,403.693085 393.019501,404.180878 
	C393.008026,458.338837 392.978699,512.496826 393.111145,566.654480 
	C393.115601,568.482910 394.359497,570.690369 395.696930,572.070679 
	C403.579865,580.206421 411.888733,587.940735 419.548126,596.275330 
	C422.068695,599.018127 424.378052,600.051392 427.891449,600.047913 
	C493.547485,599.982666 559.203613,600.001587 624.859741,599.990540 
	C626.467468,599.990295 628.075134,599.849426 630.000000,599.759277 
	C630.000000,578.433716 630.000000,557.466858 630.000000,535.500000 
M198.500000,901.000000 
	C257.237915,901.000000 315.975800,901.000000 374.780090,901.000000 
	C374.887115,899.711304 374.987671,899.064758 374.987793,898.418152 
	C374.996765,844.772400 375.018250,791.126526 374.908173,737.481018 
	C374.904633,735.756104 373.969360,733.624451 372.755280,732.375916 
	C363.930817,723.300842 355.000916,714.323486 345.894196,705.532959 
	C344.440521,704.129761 341.935608,703.106812 339.914429,703.102966 
	C274.273529,702.978271 208.632309,703.032776 142.991394,702.921021 
	C138.942444,702.914124 137.920166,704.248657 137.927994,708.122253 
	C138.035110,761.101440 137.972076,814.080933 138.108078,867.059937 
	C138.113235,869.065369 139.228989,871.525574 140.639236,872.993835 
	C148.420883,881.095032 156.722290,888.711121 164.262878,897.022217 
	C167.044373,900.087891 169.667801,901.142456 173.510590,901.055054 
	C181.503326,900.873047 189.503113,901.000000 198.500000,901.000000 
M375.000000,250.500000 
	C375.000000,212.184509 375.049042,173.868820 374.878174,135.554092 
	C374.867920,133.257019 373.655884,130.438507 372.058350,128.763748 
	C363.782623,120.087852 355.119537,111.782593 346.776337,103.169083 
	C344.516327,100.835876 342.241089,99.926826 338.992157,99.931404 
	C273.856110,100.023178 208.719879,100.000015 143.583694,100.000015 
	C141.819733,100.000015 140.055786,100.000008 138.225723,100.000008 
	C138.116486,101.273689 138.012817,101.918823 138.012711,102.563965 
	C138.003403,156.538696 137.977310,210.513489 138.105759,264.487915 
	C138.110153,266.334534 139.248810,268.585632 140.574615,269.955292 
	C148.682999,278.331787 157.076813,286.431885 165.193695,294.800415 
	C167.444199,297.120667 169.705933,298.074036 172.964920,298.069397 
	C238.434158,297.976593 303.903564,298.000000 369.372925,298.000000 
	C371.141083,298.000000 372.909210,298.000000 375.000000,298.000000 
	C375.000000,282.095551 375.000000,266.797760 375.000000,250.500000 
M347.962952,406.450256 
	C345.322449,402.713989 341.768066,401.883820 337.237000,401.894714 
	C272.912872,402.049286 208.588272,402.000000 144.263779,402.000000 
	C142.315292,402.000000 140.366821,402.000000 138.428696,402.000000 
	C138.220383,402.956146 138.030411,403.421295 138.030258,403.886505 
	C138.011185,458.212311 137.984421,512.538208 138.101929,566.863708 
	C138.105591,568.557922 139.236603,570.612488 140.474548,571.882446 
	C148.731415,580.352783 157.043671,588.778503 165.629013,596.911499 
	C167.412888,598.601379 170.414047,599.868103 172.857681,599.873962 
	C238.514938,600.032166 304.172668,600.001587 369.830292,599.990601 
	C371.440491,599.990356 373.050720,599.850647 374.842682,599.767578 
	C374.906860,598.628723 374.991791,597.824158 374.991913,597.019592 
	C374.998871,543.526978 375.023865,490.034241 374.895081,436.541901 
	C374.890625,434.691467 373.769104,432.432983 372.445190,431.063843 
	C364.570038,422.919708 356.481750,414.981628 347.962952,406.450256 
z"/>
<path fill="#FF6600" opacity="1.000000" stroke="none" 
	d="
M511.000000,100.000000 
	C616.468567,100.000000 721.437134,100.016541 826.405640,99.929382 
	C829.981750,99.926414 832.552307,100.794579 835.090576,103.441765 
	C843.390503,112.097939 852.051697,120.407028 860.398865,129.019318 
	C861.727783,130.390488 862.888672,132.633423 862.893127,134.476303 
	C863.023193,188.126572 862.996765,241.777237 862.987549,295.427826 
	C862.987488,296.073700 862.885132,296.719604 862.776855,298.000000 
	C860.950317,298.000000 859.186768,298.000000 857.423279,298.000000 
	C714.299438,298.000000 571.175598,297.989868 428.051819,298.064545 
	C424.819580,298.066223 422.523193,297.209778 420.252563,294.861938 
	C412.146637,286.480408 403.745636,278.384369 395.632294,270.009796 
	C394.300781,268.635406 393.112671,266.404449 393.108307,264.566406 
	C392.979584,210.416275 393.008759,156.265793 393.021973,102.115364 
	C393.022095,101.633080 393.146881,101.150826 393.305786,100.000000 
	C432.340942,100.000000 471.420471,100.000000 511.000000,100.000000 
z"/>
<path fill="#FF6600" opacity="1.000000" stroke="none" 
	d="
M630.000000,536.000000 
	C630.000000,557.466858 630.000000,578.433716 630.000000,599.759277 
	C628.075134,599.849426 626.467468,599.990295 624.859741,599.990540 
	C559.203613,600.001587 493.547485,599.982666 427.891449,600.047913 
	C424.378052,600.051392 422.068695,599.018127 419.548126,596.275330 
	C411.888733,587.940735 403.579865,580.206421 395.696930,572.070679 
	C394.359497,570.690369 393.115601,568.482910 393.111145,566.654480 
	C392.978699,512.496826 393.008026,458.338837 393.019501,404.180878 
	C393.019592,403.693085 393.124847,403.205261 393.263580,402.000000 
	C394.962708,402.000000 396.715973,402.000000 398.469269,402.000000 
	C463.625488,402.000000 528.781738,402.021851 593.937866,401.934967 
	C597.167297,401.930664 599.467590,402.780548 601.740967,405.131744 
	C610.079041,413.755127 618.748596,422.059296 627.028931,430.735992 
	C628.629639,432.413330 629.863342,435.221771 629.876099,437.516144 
	C630.057800,470.176636 630.000000,502.838470 630.000000,536.000000 
z"/>
<path fill="#FF6600" opacity="1.000000" stroke="none" 
	d="
M198.000000,901.000000 
	C189.503113,901.000000 181.503326,900.873047 173.510590,901.055054 
	C169.667801,901.142456 167.044373,900.087891 164.262878,897.022217 
	C156.722290,888.711121 148.420883,881.095032 140.639236,872.993835 
	C139.228989,871.525574 138.113235,869.065369 138.108078,867.059937 
	C137.972076,814.080933 138.035110,761.101440 137.927994,708.122253 
	C137.920166,704.248657 138.942444,702.914124 142.991394,702.921021 
	C208.632309,703.032776 274.273529,702.978271 339.914429,703.102966 
	C341.935608,703.106812 344.440521,704.129761 345.894196,705.532959 
	C355.000916,714.323486 363.930817,723.300842 372.755280,732.375916 
	C373.969360,733.624451 374.904633,735.756104 374.908173,737.481018 
	C375.018250,791.126526 374.996765,844.772400 374.987793,898.418152 
	C374.987671,899.064758 374.887115,899.711304 374.780090,901.000000 
	C315.975800,901.000000 257.237915,901.000000 198.000000,901.000000 
z"/>
<path fill="#FF6600" opacity="1.000000" stroke="none" 
	d="
M375.000000,251.000000 
	C375.000000,266.797760 375.000000,282.095551 375.000000,298.000000 
	C372.909210,298.000000 371.141083,298.000000 369.372925,298.000000 
	C303.903564,298.000000 238.434158,297.976593 172.964920,298.069397 
	C169.705933,298.074036 167.444199,297.120667 165.193695,294.800415 
	C157.076813,286.431885 148.682999,278.331787 140.574615,269.955292 
	C139.248810,268.585632 138.110153,266.334534 138.105759,264.487915 
	C137.977310,210.513489 138.003403,156.538696 138.012711,102.563965 
	C138.012817,101.918823 138.116486,101.273689 138.225723,100.000008 
	C140.055786,100.000008 141.819733,100.000015 143.583694,100.000015 
	C208.719879,100.000015 273.856110,100.023178 338.992157,99.931404 
	C342.241089,99.926826 344.516327,100.835876 346.776337,103.169083 
	C355.119537,111.782593 363.782623,120.087852 372.058350,128.763748 
	C373.655884,130.438507 374.867920,133.257019 374.878174,135.554092 
	C375.049042,173.868820 375.000000,212.184509 375.000000,251.000000 
z"/>
<path fill="#FF6600" opacity="1.000000" stroke="none" 
	d="
M348.214020,406.712280 
	C356.481750,414.981628 364.570038,422.919708 372.445190,431.063843 
	C373.769104,432.432983 374.890625,434.691467 374.895081,436.541901 
	C375.023865,490.034241 374.998871,543.526978 374.991913,597.019592 
	C374.991791,597.824158 374.906860,598.628723 374.842682,599.767578 
	C373.050720,599.850647 371.440491,599.990356 369.830292,599.990601 
	C304.172668,600.001587 238.514938,600.032166 172.857681,599.873962 
	C170.414047,599.868103 167.412888,598.601379 165.629013,596.911499 
	C157.043671,588.778503 148.731415,580.352783 140.474548,571.882446 
	C139.236603,570.612488 138.105591,568.557922 138.101929,566.863708 
	C137.984421,512.538208 138.011185,458.212311 138.030258,403.886505 
	C138.030411,403.421295 138.220383,402.956146 138.428696,402.000000 
	C140.366821,402.000000 142.315292,402.000000 144.263779,402.000000 
	C208.588272,402.000000 272.912872,402.049286 337.237000,401.894714 
	C341.768066,401.883820 345.322449,402.713989 348.214020,406.712280 
z"/>
</svg>